<svg xmlns="http://www.w3.org/2000/svg" xmlns:xlink="http://www.w3.org/1999/xlink" width="18px" height="18px" viewBox="0 0 18 18" version="1.1">
<defs>
<filter id="alpha" filterUnits="objectBoundingBox" x="0%" y="0%" width="100%" height="100%">
  <feColorMatrix type="matrix" in="SourceGraphic" values="0 0 0 0 1 0 0 0 0 1 0 0 0 0 1 0 0 0 1 0"/>
</filter>
<mask id="mask0">
  <g filter="url(#alpha)">
<rect x="0" y="0" width="18" height="18" style="fill:rgb(0%,0%,0%);fill-opacity:0.968627;stroke:none;"/>
  </g>
</mask>
<clipPath id="clip1">
  <rect x="0" y="0" width="18" height="18"/>
</clipPath>
<g id="surface5" clip-path="url(#clip1)">
<path style=" stroke:none;fill-rule:evenodd;fill:rgb(0%,0%,0%);fill-opacity:1;" d="M 17.984375 3.992188 C 17.984375 7.320312 17.984375 10.644531 17.984375 13.976562 C 17.628906 15.539062 16.65625 16.449219 15.0625 16.699219 C 11.011719 16.722656 6.953125 16.722656 2.898438 16.699219 C 1.308594 16.449219 0.335938 15.539062 -0.015625 13.976562 C -0.015625 10.644531 -0.015625 7.320312 -0.015625 3.992188 C 0.335938 2.425781 1.308594 1.515625 2.898438 1.265625 C 6.953125 1.242188 11.011719 1.242188 15.0625 1.265625 C 16.65625 1.515625 17.628906 2.425781 17.984375 3.992188 Z M 2.867188 2.585938 C 6.945312 2.578125 11.023438 2.585938 15.101562 2.601562 C 15.996094 2.808594 16.519531 3.363281 16.664062 4.273438 C 16.679688 4.761719 16.6875 5.253906 16.679688 5.75 C 11.546875 5.75 6.414062 5.75 1.28125 5.75 C 1.277344 5.253906 1.285156 4.761719 1.300781 4.273438 C 1.453125 3.363281 1.976562 2.800781 2.867188 2.585938 Z M 1.28125 7.085938 C 6.414062 7.085938 11.546875 7.085938 16.679688 7.085938 C 16.6875 9.289062 16.679688 11.492188 16.664062 13.695312 C 16.519531 14.601562 15.996094 15.15625 15.101562 15.363281 C 11.023438 15.386719 6.945312 15.386719 2.867188 15.363281 C 1.96875 15.15625 1.445312 14.601562 1.300781 13.695312 C 1.28125 11.492188 1.277344 9.289062 1.28125 7.085938 Z M 1.28125 7.085938 "/>
</g>
<mask id="mask1">
  <g filter="url(#alpha)">
<rect x="0" y="0" width="18" height="18" style="fill:rgb(0%,0%,0%);fill-opacity:0.972549;stroke:none;"/>
  </g>
</mask>
<clipPath id="clip2">
  <rect x="0" y="0" width="18" height="18"/>
</clipPath>
<g id="surface8" clip-path="url(#clip2)">
<path style=" stroke:none;fill-rule:evenodd;fill:rgb(0%,0%,0%);fill-opacity:1;" d="M 3.671875 12.179688 C 4.425781 12.175781 5.175781 12.179688 5.921875 12.199219 C 6.335938 12.34375 6.492188 12.628906 6.398438 13.0625 C 6.335938 13.265625 6.199219 13.402344 5.992188 13.464844 C 5.195312 13.488281 4.402344 13.488281 3.601562 13.464844 C 3.164062 13.21875 3.0625 12.875 3.304688 12.429688 C 3.410156 12.3125 3.53125 12.230469 3.671875 12.179688 Z M 3.671875 12.179688 "/>
</g>
</defs>
<g id="surface1">
<use xlink:href="#surface5" mask="url(#mask0)"/>
<use xlink:href="#surface8" mask="url(#mask1)"/>
</g>
</svg>
