<svg xmlns="http://www.w3.org/2000/svg" version="1.1" width="512px" height="512px" style="shape-rendering:geometricPrecision; text-rendering:geometricPrecision; image-rendering:optimizeQuality; fill-rule:evenodd; clip-rule:evenodd" xmlns:xlink="http://www.w3.org/1999/xlink">
<g><path style="opacity:0.973" fill="#000000" d="M 183.5,41.5 C 238.056,40.8317 274.889,65.8317 294,116.5C 305.776,161.247 294.943,199.413 261.5,231C 227.396,257.016 190.063,262.682 149.5,248C 111.992,231.152 90.4917,202.318 85,161.5C 81.5082,114.982 99.3415,79.4822 138.5,55C 152.745,47.5281 167.745,43.0281 183.5,41.5 Z M 182.5,85.5 C 220.396,83.683 244.23,101.016 254,137.5C 257.745,171.712 243.912,195.545 212.5,209C 182.735,217.273 158.235,209.44 139,185.5C 127.359,165.826 125.359,145.159 133,123.5C 142.873,102.002 159.373,89.3358 182.5,85.5 Z"/></g>
<g><path style="opacity:0.97" fill="#000000" d="M 336.5,44.5 C 374.632,51.7914 401.799,73.1248 418,108.5C 434.635,157.797 423.801,199.964 385.5,235C 372.699,245.15 358.199,251.317 342,253.5C 323.448,251.73 316.115,241.73 320,223.5C 321.396,219.208 323.896,215.708 327.5,213C 352.039,207.12 369.206,192.62 379,169.5C 387.684,135.54 377.184,109.373 347.5,91C 340.807,87.4851 333.807,84.8185 326.5,83C 315.836,71.6531 315.836,60.3198 326.5,49C 329.815,47.1702 333.149,45.6702 336.5,44.5 Z"/></g>
<g><path style="opacity:0.973" fill="#000000" d="M -0.5,454.5 C -0.5,432.833 -0.5,411.167 -0.5,389.5C 10.3631,335.808 43.0298,305.308 97.5,298C 160.167,297.333 222.833,297.333 285.5,298C 339.957,305.124 372.457,335.624 383,389.5C 383.667,411.167 383.667,432.833 383,454.5C 380.614,462.886 375.114,467.72 366.5,469C 353.573,470.798 345.073,465.632 341,453.5C 340.667,435.167 340.333,416.833 340,398.5C 335.528,367.028 317.695,348.194 286.5,342C 223.167,341.333 159.833,341.333 96.5,342C 65.3055,348.194 47.4721,367.028 43,398.5C 42.6667,416.833 42.3333,435.167 42,453.5C 37.9266,465.632 29.4266,470.798 16.5,469C 7.8684,467.528 2.20174,462.695 -0.5,454.5 Z"/></g>
<g><path style="opacity:0.973" fill="#000000" d="M 511.5,382.5 C 511.5,407.5 511.5,432.5 511.5,457.5C 500.313,471.318 487.48,472.985 473,462.5C 471.092,459.785 469.759,456.785 469,453.5C 468.667,435.167 468.333,416.833 468,398.5C 464.94,375.192 453.107,358.026 432.5,347C 425.98,345.122 419.647,342.789 413.5,340C 404.683,331.359 403.183,321.526 409,310.5C 417.387,300.196 427.553,298.03 439.5,304C 476.656,318.176 500.656,344.343 511.5,382.5 Z"/></g>
</svg>
