<svg xmlns="http://www.w3.org/2000/svg" version="1.1" width="512px" height="512px" style="shape-rendering:geometricPrecision; text-rendering:geometricPrecision; image-rendering:optimizeQuality; fill-rule:evenodd; clip-rule:evenodd" xmlns:xlink="http://www.w3.org/1999/xlink">
<g><path style="opacity:0.97" fill="#000000" d="M 132.5,-0.5 C 214.5,-0.5 296.5,-0.5 378.5,-0.5C 441.123,9.23473 483.289,43.9014 505,103.5C 507.765,113.173 509.931,122.839 511.5,132.5C 511.5,214.5 511.5,296.5 511.5,378.5C 503.534,433.278 474.867,473.111 425.5,498C 410.329,504.674 394.662,509.174 378.5,511.5C 296.5,511.5 214.5,511.5 132.5,511.5C 77.7222,503.534 37.8888,474.867 13,425.5C 6.32637,410.329 1.82637,394.662 -0.5,378.5C -0.5,296.5 -0.5,214.5 -0.5,132.5C 9.23473,69.8775 43.9014,27.7108 103.5,6C 113.173,3.2353 122.839,1.06863 132.5,-0.5 Z M 148.5,19.5 C 219.834,19.3333 291.167,19.5 362.5,20C 417.86,23.0516 457.36,49.5516 481,99.5C 487.408,115.538 490.741,132.204 491,149.5C 491.953,225.181 491.619,300.847 490,376.5C 481.527,430.277 451.693,466.444 400.5,485C 388.109,488.732 375.442,490.732 362.5,491C 286.153,491.953 209.819,491.62 133.5,490C 80.1347,481.233 44.3014,451.4 26,400.5C 22.1588,387.786 20.1588,374.786 20,361.5C 19.3333,290.833 19.3333,220.167 20,149.5C 23.1837,89.9999 52.3503,49.1665 107.5,27C 120.996,22.753 134.662,20.253 148.5,19.5 Z"/></g>
<g><path style="opacity:0.979" fill="#000000" d="M 344.5,113.5 C 355.851,112.403 366.517,114.57 376.5,120C 382.148,124.298 385.148,129.965 385.5,137C 379.404,176.622 366.904,214.122 348,249.5C 318.517,304.338 281.35,353.504 236.5,397C 223.992,397.975 211.992,395.975 200.5,391C 198.04,389.542 195.873,387.709 194,385.5C 194.527,334.733 190.194,284.4 181,234.5C 177.959,217.04 171.959,200.707 163,185.5C 158.155,178.66 151.655,176.16 143.5,178C 138.338,179.834 133.672,182.501 129.5,186C 128.216,186.684 127.049,186.517 126,185.5C 130.798,162.41 141.965,142.91 159.5,127C 175.932,114.131 193.599,112.131 212.5,121C 222.538,129.221 230.038,139.388 235,151.5C 242.016,170.911 246.349,190.911 248,211.5C 250.676,249.351 249.676,287.017 245,324.5C 282.303,274.27 302.803,217.77 306.5,155C 306.613,148.535 305.947,142.202 304.5,136C 315.06,123.554 328.393,116.054 344.5,113.5 Z"/></g>
</svg>
